<svg width="115" height="113" viewBox="0 0 115 113" fill="none" xmlns="http://www.w3.org/2000/svg">
<path d="M114.5 95C114.5 97.2526 113.041 99.4901 110.184 101.605C107.337 103.712 103.185 105.631 98.0093 107.251C87.6642 110.489 73.3419 112.5 57.5 112.5C41.6581 112.5 27.3358 110.489 16.9907 107.251C11.8152 105.631 7.66331 103.712 4.81609 101.605C1.9592 99.4901 0.5 97.2526 0.5 95C0.5 92.7474 1.9592 90.5099 4.81609 88.3955C7.66331 86.2882 11.8152 84.3694 16.9907 82.7492C27.3358 79.5108 41.6581 77.5 57.5 77.5C73.3419 77.5 87.6642 79.5108 98.0093 82.7492C103.185 84.3694 107.337 86.2882 110.184 88.3955C113.041 90.5099 114.5 92.7474 114.5 95Z" fill="#5273EA" stroke="black"/>
<path d="M81.5 8.5C81.5 9.459 80.9291 10.4486 79.7221 11.4189C78.5197 12.3855 76.7491 13.278 74.5167 14.037C70.057 15.5533 63.8639 16.5 57 16.5C50.1361 16.5 43.943 15.5533 39.4833 14.037C37.251 13.278 35.4803 12.3855 34.2779 11.4189C33.0709 10.4486 32.5 9.459 32.5 8.5C32.5 7.541 33.0709 6.55139 34.2779 5.58112C35.4803 4.61452 37.251 3.72197 39.4833 2.96298C43.943 1.44669 50.1361 0.5 57 0.5C63.8639 0.5 70.057 1.44669 74.5167 2.96298C76.7491 3.72197 78.5197 4.61452 79.7221 5.58112C80.9291 6.55139 81.5 7.541 81.5 8.5Z" fill="#5273EA" stroke="black"/>
<path d="M32.5 8.5L0.5 95" stroke="black"/>
<path d="M114.5 94L81.5 8.5" stroke="black"/>
<path d="M33 9.5H32L2 90.5L8 86L13.5 83.5L18.5 82L23.5 80.5L30 79.5L36 78.5L44.5 78L52 77.5H59H67L73.5 78L81.5 79L90 80.5L96 82L101.5 84L106.5 86L112 90H113L111.5 87L110.5 83.5L81.5 9.5L79 12L76 13.5L72 15L68 16L64.5 16.5H61.5H55L48.5 16L42 15L38.5 13.5L35 12L33 9.5Z" fill="#5273EA"/>
</svg>
